<svg xmlns="http://www.w3.org/2000/svg" height="480" width="480" style=""><rect id="backgroundrect" width="100%" height="100%" x="0" y="0" fill="none" stroke="none"/><g class="currentLayer" style=""><title>Layer 1</title><path d="m413.29032135009766,460.800781 l8,13.855469 c12.359375,-7.167969 19.976562,-20.367188 20,-34.65625 v-400 c-0.027344000000000437,-22.082031 -17.917969,-39.9726562 -40,-40 h-40 v16 h40 c13.253906,0 24,10.746094 24,24 v400 c-0.015625000000000246,8.574219 -4.5859380000000005,16.496094 -12,20.800781 zm0,0 " id="svg_1" class="" fill="#ffffff" fill-opacity="1"/><path d="m324.5950093500977,0.8007810000000006 c-0.24218800000000001,-0.10546900000000002 -0.472657,-0.167969000000004 -0.7187500000000071,-0.2578120000000003 c-0.6835940000000091,-0.23828100000000021 -1.398438,-0.3789070000000003 -2.121094,-0.414063 c-0.16015600000000021,-0.05078100000000011 -0.304688000000004,-0.12890600000000021 -0.4648440000000003,-0.12890600000000021 h-240 c-22.082031,0.027343800000000324 -39.9726562,17.917969 -40,40 v400 c0.027343800000000324,22.082031 17.917969,39.972656 40,40 h288 c22.082031,-0.027344000000000437 39.972656,-17.917969 40,-40 v-352 c0,-0.17578100000000021 -0.08984400000000121,-0.32812500000000355 -0.10546900000000002,-0.503906 c-0.03906200000000001,-0.6992190000000091 -0.17578100000000021,-1.394532 -0.40625,-2.054688 c-0.08984300000000114,-0.2578120000000003 -0.15234300000000214,-0.503906 -0.265625,-0.7539060000000006 c-0.38671800000000367,-0.8710940000000091 -0.929687,-1.664062 -1.5976560000000002,-2.34375 l-80,-80 c-0.6757810000000116,-0.6484380000000006 -1.460938,-1.171875 -2.320312,-1.542969 zm44.695312,463.199219 h-288 c-13.253906,0 -24,-10.746094 -24,-24 v-400 c0,-13.253906 10.746094,-24 24,-24 h232 v40 c0.027344000000000437,22.082031 17.917969,39.972656 40,40 h40 v344 c0,13.253906 -10.746094,24 -24,24 zm12.6875,-384 h-28.6875 c-13.253906,0 -24,-10.746094 -24,-24 v-28.6875 zm0,0 " id="svg_2" class="" fill="#ffffff" fill-opacity="1"/><path d="m81.29032135009766,32 h16 v16 h-16 zm0,0 " id="svg_3" class="" fill="#ffffff" fill-opacity="1"/><path d="m113.29032135009766,32 h16 v16 h-16 zm0,0 " id="svg_4" class="" fill="#ffffff" fill-opacity="1"/><path d="m145.29032135009766,32 h16 v16 h-16 zm0,0 " id="svg_5" class="" fill="#ffffff" fill-opacity="1"/><path d="m81.29032135009766,64 h216 v16 h-216 zm0,0 " id="svg_6" class="" fill="#ffffff" fill-opacity="1"/><path d="m81.29032135009766,160 h184 v32 h-184 v16 h184 v24 h-184 v16 h184 v24 h-184 v16 h184 v24 h-184 v16 h184 v24 h-184 v16 h184 v24 h-48 v16 h152 v-16 h-88 v-24 h88 v-16 h-88 v-24 h88 v-16 h-88 v-24 h88 v-16 h-88 v-24 h88 v-16 h-88 v-24 h88 v-16 h-88 v-32 h88 v-16 h-288 zm0,0 " id="svg_7" class="" fill="#ffffff" fill-opacity="1"/><path d="m169.29032135009766,104 h64 v16 h-64 zm0,0 " id="svg_8" class="" fill="#ffffff" fill-opacity="1"/><path d="m249.29032135009766,104 h32 v16 h-32 zm0,0 " id="svg_9" class="" fill="#ffffff" fill-opacity="1"/><path d="m217.29032135009766,424 h152 v16 h-152 zm0,0 " id="svg_10" class="" fill="#ffffff" fill-opacity="1"/></g></svg>