<svg xmlns="http://www.w3.org/2000/svg" height="512" width="512"><rect id="backgroundrect" width="100%" height="100%" x="0" y="0" fill="none" stroke="none"/><g class="currentLayer" style=""><title>Layer 1</title><path d="m247.24521078995514,125.726562 h3.917968 c1.195313,10.640626000000001 10.25,18.945313 21.214844,18.945313 h14.480469 c11.777343,0 21.359375,-9.578125 21.359375,-21.347656 v-15.195313 c0,-0.742187 0.6132810000000006,-1.3476560000000002 1.363281,-1.3476560000000002 h15.335937 c0.7500000000000081,0 1.363282,0.605469 1.363282,1.3476560000000002 v15.195313 c0,0.742187 -0.613282,1.3476560000000002 -1.363282,1.3476560000000002 h-1.4023430000000001 c-5.523438,0 -10,4.476563 -10,10 s4.476562,10 10,10 h1.4023430000000001 c10.964844,0 20.015626,-8.300781 21.21875,-18.945313 h3.914063 c5.519531,0 10,-4.476562 10,-10 c0,-5.5234369999999995 -4.480469,-10 -10,-10 h-3.914063 c-1.1992180000000001,-10.640624 -10.253906,-18.945312 -21.21875,-18.945312 h-15.335937 c-11.777344,0 -21.363281,9.574219 -21.363281,21.347656 v15.195313 c0,0.742187 -0.6093750000000081,1.3476560000000002 -1.359375,1.3476560000000002 h-14.480469 c-0.7500000000000081,0 -1.359375,-0.605469 -1.359375,-1.3476560000000002 v-15.195313 c0,-0.742187 0.6093750000000081,-1.3476560000000002 1.359375,-1.3476560000000002 c5.523438,0 10,-4.476562 10,-10 s-4.476562,-10 -10,-10 c-10.964844,0 -20.015625,8.300781 -21.214844,18.945312 h-3.914062 c-5.523438,0 -10,4.476563 -10,10 c0,5.519532 4.476562,10 9.996094,10 zm0,0 " id="svg_1" class="" fill="#ffffff" fill-opacity="1"/><path d="m456.94833478995514,324.425781 l-57.195312,-76.601562 v-96.289063 c0,-0.04296800000000001 0.0039060000000000713,-0.08203100000000135 0.0039060000000000713,-0.125 v-54.398437 h36.410156 c13.890626000000001,0 25.191407,-11.296875 25.191407,-25.183594 v-46.648437 c0,-13.882813 -11.300781,-25.179688 -25.191407,-25.179688 h-272.007812 c-13.886719,0 -25.183594,11.296875 -25.183594,25.179688 v46.648437 c0,13.886719 11.296875,25.183594 25.183594,25.183594 h33.375 v105.539062 l-49.535156,-52.910156 c-1.8945319999999999,-2.019531 -4.535156,-3.1679690000000003 -7.300782,-3.1679690000000003 c-2.769531,0 -5.410156,1.148438 -7.300781,3.1679690000000003 l-83.601562,89.289063 c-2.7226565000000003,2.9101559999999997 -3.4570309999999997,7.15625 -1.875,10.8125 c1.585937,3.65625 5.191406,6.019531 9.175781,6.019531 h37.839844 v33.007812 c0,5.519531 4.476562,10 10,10 c5.5234369999999995,0 10,-4.480469 10,-10 v-43.007812 c0,-2.6523440000000003 -1.054688,-5.195313 -2.929688,-7.070313 s-4.417968,-2.929687 -7.070312,-2.929687 h-24.777344 l60.539062,-64.65625 l60.535157,64.65625 h-27.8125 c-5.523438,0 -10,4.480469 -10,10 v132.464843 h-48.484375 v-11.457031 c0,-5.5234369999999995 -4.480469,-10 -10,-10 c-5.523438,0 -10,4.476563 -10,10 v21.457031 c0,5.523438 4.476562,10 10,10 h68.484375 c5.519531,0 10,-4.476562 10,-10 v-132.460937 h14.113281 v56.648437 c0,5.523438 4.476562,10 10,10 h36.152344 c0.02343700000000045,0 0.05078100000000011,-0.0039060000000000713 0.074218,-0.0039060000000000713 h54.164063 v110.519532 h-12.183594 c-5.5234369999999995,0 -10,4.480468 -10,10 v59.070312 c0,5.523438 4.476563,10 10,10 h145.800781 c5.519532,0 10,-4.476562 10,-10 v-59.066406 c0,-5.523438 -4.480468,-10 -10,-10 h-10.753906 c0.37500000000000405,-1.367188 0.8710940000000102,-2.6992190000000003 1.492188,-3.9726559999999997 l37.949218,-58.1875 c0.19140700000000346,-0.289063 0.3632820000000003,-0.5898440000000102 0.523438,-0.894532 c7.453125,-14.523437 5.9609380000000005,-32.359375 -3.804688,-45.453125 zm-35.40625,167.574219 h-125.796874 v-39.066406 h125.796874 zm-204.003906,-404.988281 v-8.925781 c4.363282,-5.7578130000000005 9.765625,-11.003907 16.117188,-15.65625 h130.796875 c5.957031,4.363281 11.085937,9.261718 15.300781,14.609374 v71.039063 c-16.894531,21.441406 -47.476562,34.640625 -80.703125,34.640625 c-33.898437,0 -64.796875,-13.605469 -81.511719,-35.691406 zm162.179688,215.398437 h-14.164063 c2.65625,-6.390625 7.773438,-11.507812 14.164063,-14.164062 zm-16.273438,20.003906 h16.273438 v21.824219 c0,2.171875 -0.8476560000000006,4.214844 -2.382813,5.75 c-1.535156,1.5351569999999999 -3.5742190000000003,2.382813 -5.746093,2.382813 c-4.4921880000000005,0 -8.144532,-3.648438 -8.144532,-8.132813 zm-199.285156,-245.402343 c-2.859375,0 -5.183594,-2.3242190000000003 -5.183594,-5.183594 v-46.648437 c0,-2.8554690000000003 2.3242190000000003,-5.179688 5.183594,-5.179688 h272.007812 c2.863282,0 5.191407,2.3242190000000003 5.191407,5.179688 v46.648437 c0,2.859375 -2.328125,5.183594 -5.191407,5.183594 h-36.410156 v-14.585938 h17.207032 c5.5234369999999995,0 10,-4.476562 10,-10 c0,-5.5234369999999995 -4.476563,-10 -10,-10 h-233.59375 c-5.523438,0 -10,4.476563 -10,10 c0,5.523438 4.476562,10 10,10 h14.164062 v14.585938 zm53.375,225.398437 v-14.164062 c6.390625,2.65625 11.507812,7.7734369999999995 14.164062,14.164062 zm80.390625,0 h-45.34375 c-3.867187,-17.433594 -17.617187,-31.179687 -35.046875,-35.046875 v-11.601562 h6.761719 c3.980469,0 7.585937,-2.363281 9.171875,-6.019531 c0.992186999999988,-2.285157 1.0742180000000001,-4.800782 0.3359370000000003,-7.078126 c-0.4453120000000065,-1.367187 -1.1875,-2.648437 -2.210937,-3.738281 l-14.058594,-15.019531 v-48.414062 c21.09375,17.171874 50.351562,27.226562 81.515625,27.226562 c30.65625,0 59.640625,-9.824219 80.703125,-26.589844 v74.132813 c-0.023438000000000504,0.277343 -0.03515600000000011,0.554687 -0.03515600000000011,0.835937 v16.265625 c-5.992188,1.328125 -11.542969,3.8242190000000003 -16.414063,7.234375 c-0.6992190000000102,-7.59375 -3.992187,-14.644531 -9.445312,-20.101562 c-6.179688,-6.195313 -14.40625,-9.605469 -23.171875,-9.605469 h-0.0039060000000000713 c-18.0625,0 -32.757813,14.695313 -32.757813,32.757813 zm145.246094,57.910156 l-37.949219,58.1875 c-0.18750000000000044,0.289063 -0.363281,0.5859380000000006 -0.519531,0.8906260000000094 c-2.171875,4.230468 -3.632813,8.824218 -4.3125,13.53125 h-82.464844 v-155.28125 c0,-7.152344 5.605469,-12.757813 12.757813,-12.757813 c3.410156,0 6.609374,1.324219 9.019531,3.742187 c2.410156,2.410157 3.742187,5.613282 3.742187,9.015626 v34.761718 v0.05859400000000011 v31.769531 c0,15.511719 12.625,28.132813 28.144532,28.132813 c7.511718,0 14.578124,-2.925782 19.890624,-8.238282 s8.238282,-12.378906 8.238282,-19.894531 v-31.113281 c0.01562500000000028,-0.23828100000000021 0.03515600000000011,-0.472656 0.03515600000000011,-0.7148440000000102 v-31.15625 l41.167969,55.136719 c5.136719,6.886719 6.003906,16.230469 2.25,23.929687 zm0,0 " id="svg_2" class="" fill="#ffffff" fill-opacity="1"/><path d="m95.70224178995514,331.871094 c1.5820310000000002,3.792968 5.429687,6.296875 9.546875,6.164062 c3.992187,-0.12890600000000021 7.644531,-2.722656 9.039062,-6.472656 c1.476563,-3.9648440000000003 0.2773440000000003,-8.5625 -3.011718,-11.25 c-3.332032,-2.722656 -8.136719,-2.9882809999999997 -11.757813,-0.6718750000000162 c-4.03125,2.582031 -5.621094,7.820313 -3.8164059999999997,12.230469 zm0,0 " id="svg_3" class="" fill="#ffffff" fill-opacity="1"/></g></svg>