<svg xmlns="http://www.w3.org/2000/svg" height="512" width="512" style=""><rect id="backgroundrect" width="100%" height="100%" x="0" y="0" fill="none" stroke="none"/><g class="currentLayer" style=""><title>Layer 1</title><path d="m435.03691865171817,0 h-354.460938 c-8.15625,0 -14.769531,6.613281 -14.769531,14.769531 v482.460938 c0,8.15625 6.613281,14.769531 14.769531,14.769531 h354.460938 c8.15625,0 14.769531,-6.613281 14.769531,-14.769531 v-482.460938 c0,-8.15625 -6.613281,-14.769531 -14.769531,-14.769531 zm-14.769531,482.460938 h-324.921876 v-452.921876 h324.921876 zm0,0 " id="svg_1" class="selected" fill="#ffffff" fill-opacity="1"/><path d="m326.72832465171814,324.921875 h49.230469 c8.15625,0 14.769531,-6.613281 14.769531,-14.769531 s-6.613281,-14.769532 -14.769531,-14.769532 h-24.613282 v-19.691406 c0,-8.15625 -6.613281,-14.769531 -14.769531,-14.769531 s-14.769531,6.613281 -14.769531,14.769531 v19.972656 c-22.121094,2.457032 -39.382812,21.261719 -39.382812,44.027344 v14.769532 c0,8.15625 6.609374,14.769531 14.765624,14.769531 h64 c0,8.144531 -6.625,14.769531 -14.765624,14.769531 h-49.234376 c-8.15625,0 -14.765624,6.613281 -14.765624,14.769531 s6.609374,14.769531 14.765624,14.769531 h24.617188 v19.691407 c0,8.15625 6.613281,14.769531 14.769531,14.769531 s14.769531,-6.613281 14.769531,-14.769531 v-19.972657 c22.121094,-2.4570309999999997 39.382813,-21.261718 39.382813,-44.027343 v-14.769531 c0,-8.15625 -6.613281,-14.769532 -14.769531,-14.769532 h-64 c0,-8.144531 6.628906,-14.769531 14.769531,-14.769531 zm0,0 " id="svg_2" class="selected" fill="#ffffff" fill-opacity="1"/><path d="m139.65410565171814,93.539062 h78.769532 c8.15625,0 14.765624,-6.613281 14.765624,-14.769531 s-6.609374,-14.769531 -14.765624,-14.769531 h-78.769532 c-8.15625,0 -14.769531,6.613281 -14.769531,14.769531 s6.613281,14.769531 14.769531,14.769531 zm0,0 " id="svg_3" class="selected" fill="#ffffff" fill-opacity="1"/><path d="m139.65410565171814,152.617188 h236.304688 c8.15625,0 14.769531,-6.613282 14.769531,-14.769532 s-6.613281,-14.769531 -14.769531,-14.769531 h-236.304688 c-8.15625,0 -14.769531,6.613281 -14.769531,14.769531 s6.613281,14.769532 14.769531,14.769532 zm0,0 " id="svg_4" class="selected" fill="#ffffff" fill-opacity="1"/><path d="m139.65410565171814,211.691406 h236.304688 c8.15625,0 14.769531,-6.613281 14.769531,-14.769531 s-6.613281,-14.769531 -14.769531,-14.769531 h-236.304688 c-8.15625,0 -14.769531,6.613281 -14.769531,14.769531 s6.613281,14.769531 14.769531,14.769531 zm0,0 " id="svg_5" class="selected" fill="#ffffff" fill-opacity="1"/><path d="m139.65410565171814,270.769531 h137.84375 c8.15625,0 14.769532,-6.613281 14.769532,-14.769531 s-6.613282,-14.769531 -14.769532,-14.769531 h-137.84375 c-8.15625,0 -14.769531,6.613281 -14.769531,14.769531 s6.613281,14.769531 14.769531,14.769531 zm0,0 " id="svg_6" class="selected" fill="#ffffff" fill-opacity="1"/><path d="m139.65410565171814,329.847656 h98.460938 c8.15625,0 14.769531,-6.613281 14.769531,-14.769531 s-6.613281,-14.769531 -14.769531,-14.769531 h-98.460938 c-8.15625,0 -14.769531,6.613281 -14.769531,14.769531 s6.613281,14.769531 14.769531,14.769531 zm0,0 " id="svg_7" class="selected" fill="#ffffff" fill-opacity="1"/><path d="m139.65410565171814,388.921875 h98.460938 c8.15625,0 14.769531,-6.613281 14.769531,-14.769531 s-6.613281,-14.769532 -14.769531,-14.769532 h-98.460938 c-8.15625,0 -14.769531,6.613282 -14.769531,14.769532 s6.613281,14.769531 14.769531,14.769531 zm0,0 " id="svg_8" class="selected" fill="#ffffff" fill-opacity="1"/><path d="m139.65410565171814,448 h98.460938 c8.15625,0 14.769531,-6.613281 14.769531,-14.769531 s-6.613281,-14.769531 -14.769531,-14.769531 h-98.460938 c-8.15625,0 -14.769531,6.613281 -14.769531,14.769531 s6.613281,14.769531 14.769531,14.769531 zm0,0 " id="svg_9" class="selected" fill="#ffffff" fill-opacity="1"/></g></svg>